HIERARCHY
ROOT Hips
{
	OFFSET 0.000000 0.000000 0.000000
	CHANNELS 6 Xposition Yposition Zposition Zrotation Yrotation Xrotation 
	JOINT LowerBack
	{
		OFFSET 0.000000 0.000000 0.000000
		CHANNELS 3 Zrotation Yrotation Xrotation
		JOINT Spine
		{
			OFFSET 0.028270 2.035590 -0.193380
			CHANNELS 3 Zrotation Yrotation Xrotation
			JOINT Spine1
			{
				OFFSET 0.056720 2.048850 -0.042750
				CHANNELS 3 Zrotation Yrotation Xrotation
				JOINT Neck
				{
					OFFSET 0.000000 0.000000 0.000000
					CHANNELS 3 Zrotation Yrotation Xrotation
					JOINT Neck1
					{
						OFFSET -0.054170 1.746240 0.172020
						CHANNELS 3 Zrotation Yrotation Xrotation
						JOINT Head
						{
							OFFSET 0.104070 1.761360 -0.123970
							CHANNELS 3 Zrotation Yrotation Xrotation
							End Site
							{
								OFFSET 0.000000 0.000000 0.000000
							}
						}
					}
				}
				JOINT LeftShoulder
				{
					OFFSET 0.000000 0.000000 0.000000
					CHANNELS 3 Zrotation Yrotation Xrotation
					JOINT LeftArm
					{
						OFFSET 3.362410 1.200890 -0.311210
						CHANNELS 3 Zrotation Yrotation Xrotation
						JOINT LeftForeArm
						{
							OFFSET 4.983000 -0.000000 -0.000000
							CHANNELS 3 Zrotation Yrotation Xrotation
							JOINT LeftHand
							{
								OFFSET 3.483560 -0.000000 -0.000000
								CHANNELS 3 Zrotation Yrotation Xrotation
								JOINT LeftFingerBase
								{
									OFFSET 0.000000 0.000000 0.000000
									CHANNELS 3 Zrotation Yrotation Xrotation
									JOINT LeftHandIndex1
									{
										OFFSET 0.715260 -0.000000 -0.000000
										CHANNELS 3 Zrotation Yrotation Xrotation
										End Site
										{
											OFFSET 0.000000 0.000000 0.000000
										}
									}
								}
								JOINT LThumb
								{
									OFFSET 0.000000 0.000000 0.000000
									CHANNELS 3 Zrotation Yrotation Xrotation
									End Site
									{
										OFFSET 0.000000 0.000000 0.000000
									}
								}
							}
						}
					}
				}
				JOINT RightShoulder
				{
					OFFSET 0.000000 0.000000 0.000000
					CHANNELS 3 Zrotation Yrotation Xrotation
					JOINT RightArm
					{
						OFFSET -3.136600 1.374050 -0.404650
						CHANNELS 3 Zrotation Yrotation Xrotation
						JOINT RightForeArm
						{
							OFFSET -5.241900 -0.000000 -0.000000
							CHANNELS 3 Zrotation Yrotation Xrotation
							JOINT RightHand
							{
								OFFSET -3.444170 -0.000000 -0.000000
								CHANNELS 3 Zrotation Yrotation Xrotation
								JOINT RightFingerBase
								{
									OFFSET 0.000000 0.000000 0.000000
									CHANNELS 3 Zrotation Yrotation Xrotation
									JOINT RightHandIndex1
									{
										OFFSET -0.622530 -0.000000 -0.000000
										CHANNELS 3 Zrotation Yrotation Xrotation
										End Site
										{
											OFFSET 0.000000 0.000000 0.000000
										}
									}
								}
								JOINT RThumb
								{
									OFFSET 0.000000 0.000000 0.000000
									CHANNELS 3 Zrotation Yrotation Xrotation
									End Site
									{
										OFFSET 0.000000 0.000000 0.000000
									}
								}
							}
						}
					}
				}
			}
		}
	}
}
}
MOTION
Frames: 18
Frame Time: 0.008333
-4.692951 15.283184 -1.931362 25.968921 77.819932 55.560576 3.220222 -4.206069 10.214840 0.178484 -4.131316 -0.938960 -4.838800 -4.041676 -0.667626 7.766512 -15.245123 -8.865531 -1.489145 -0.065107 -0.748726 0.000000 0.000000 0.000000 9.884505 3.311155 1.610921 -59.712674 11.529443 5.406544 -179.461975 -82.070260 -179.987204 -2.275341 3.836584 -0.070313 0.008165 0.279675 0.000000 0.000000 0.000000 0.000000 0.000000 0.000000 0.000000 3.544174 -10.237017 1.356873 72.751831 -15.912154 5.279296 179.820366 87.867199 -179.973984 5.551385 3.670411 0.197643 -0.097580 -0.327228 -0.000000 0.000000 0.000000 0.000000 0.000000 0.000000 0.000000 
-4.568941 15.276105 -1.901636 24.944568 77.367515 54.260798 3.487023 -4.199836 10.173359 0.232650 -4.121994 -0.944658 -4.869542 -4.032294 -0.630020 7.883121 -15.060075 -8.911379 -1.574640 -0.071328 -0.757559 0.000000 0.000000 0.000000 9.890009 3.603926 1.626396 -61.489939 12.292951 4.873479 -179.506906 -82.762461 -179.985048 -2.623273 3.900314 -0.083051 0.018709 0.275587 0.000000 0.000000 0.000000 0.000000 0.000000 0.000000 0.000000 3.964186 -10.075228 1.289048 73.145250 -15.120293 3.798215 179.832081 88.214517 -179.974855 5.207661 3.654110 0.184774 -0.089843 -0.330981 -0.000000 0.000000 0.000000 0.000000 0.000000 0.000000 0.000000 
-4.444807 15.270909 -1.870177 23.948286 76.894934 53.018195 3.731393 -4.195077 10.089990 0.281991 -4.115175 -0.952607 -4.902873 -4.025313 -0.566217 8.030975 -14.909924 -8.963293 -1.656403 -0.077225 -0.767031 0.000000 0.000000 0.000000 9.915188 3.949157 1.643271 -63.317838 13.005471 4.245983 -179.554175 -83.546763 -179.982078 -3.128927 3.979564 -0.101903 0.031863 0.270308 0.000000 0.000000 0.000000 0.000000 0.000000 0.000000 0.000000 4.419040 -9.961619 1.203041 73.486775 -14.309284 2.357335 179.844417 88.547809 -179.976692 4.683109 3.607492 0.164409 -0.079370 -0.334637 -0.000000 0.000000 0.000000 0.000000 0.000000 0.000000 0.000000 
-4.320514 15.267420 -1.836781 23.006948 76.401107 51.866692 3.949039 -4.191907 9.955701 0.326389 -4.111205 -0.964602 -4.936623 -4.021219 -0.475184 8.200808 -14.800023 -9.020912 -1.730934 -0.082553 -0.776811 0.000000 0.000000 0.000000 9.943052 4.345632 1.660617 -65.159259 13.661220 3.530676 -179.603389 -84.409252 -179.978586 -3.756331 4.083716 -0.126363 0.046492 0.263714 0.000000 0.000000 0.000000 0.000000 0.000000 0.000000 0.000000 4.884744 -9.900577 1.100353 73.785935 -13.491820 0.988798 179.857239 88.869831 -179.979754 3.985503 3.553944 0.138248 -0.066384 -0.338417 -0.000000 0.000000 0.000000 0.000000 0.000000 0.000000 0.000000 
-4.196127 15.265590 -1.801484 22.162031 75.886880 50.848328 4.136605 -4.190729 9.769982 0.365407 -4.110585 -0.980627 -4.969870 -4.020520 -0.356622 8.386299 -14.734933 -9.085582 -1.796420 -0.087156 -0.787298 0.000000 0.000000 0.000000 9.959020 4.796007 1.677960 -66.977502 14.242781 2.748226 -179.654535 -85.342528 -179.974873 -4.467044 4.225360 -0.156629 0.061438 0.255693 0.000000 0.000000 0.000000 0.000000 0.000000 0.000000 0.000000 5.347809 -9.895424 0.983035 74.051597 -12.682428 -0.294118 179.870441 89.170105 -179.983431 3.144289 3.491129 0.107488 -0.051434 -0.342169 -0.000000 0.000000 0.000000 0.000000 0.000000 0.000000 0.000000 
-4.071747 15.265514 -1.764619 21.442760 75.353409 49.990434 4.294992 -4.191495 9.536901 0.399295 -4.113354 -0.999334 -5.002155 -4.023179 -0.209096 8.583160 -14.716399 -9.161194 -1.852399 -0.090930 -0.799820 0.000000 0.000000 0.000000 9.951542 5.317588 1.695427 -68.737666 14.714713 1.936717 -179.708233 -86.351723 -179.971197 -5.227222 4.414815 -0.192793 0.075637 0.246261 0.000000 0.000000 0.000000 0.000000 0.000000 0.000000 0.000000 5.802768 -9.946101 0.852362 74.290618 -11.893195 -1.494937 179.882591 89.425936 -179.987748 2.210491 3.389477 0.073726 -0.035389 -0.345369 -0.000000 0.000000 0.000000 0.000000 0.000000 0.000000 0.000000 
-3.947579 15.267237 -1.726309 20.828261 74.800182 49.279461 4.426877 -4.192615 9.254495 0.428863 -4.118153 -1.023009 -5.032222 -4.028159 -0.039702 8.782296 -14.739880 -9.244236 -1.897048 -0.093793 -0.813414 0.000000 0.000000 0.000000 9.903524 5.889625 1.711996 -70.400497 15.099218 1.114714 -179.764277 -87.407885 -179.967954 -5.968458 4.646159 -0.233151 0.087788 0.235804 0.000000 0.000000 0.000000 0.000000 0.000000 0.000000 0.000000 6.228444 -10.044134 0.713319 74.510655 -11.137342 -2.590429 179.893797 89.641134 -179.992597 1.210237 3.282406 0.039562 -0.018609 -0.348408 -0.000000 0.000000 0.000000 0.000000 0.000000 0.000000 0.000000 
-3.823878 15.270937 -1.687054 20.317872 74.227404 48.710839 4.537982 -4.193291 8.932952 0.455093 -4.124194 -1.049634 -5.060014 -4.034599 0.150380 8.980939 -14.802845 -9.337918 -1.930856 -0.095709 -0.829407 0.000000 0.000000 0.000000 9.807584 6.525908 1.727914 -71.936960 15.369486 0.329100 -179.823610 -88.518468 -179.965366 -6.657533 4.912481 -0.276495 0.097199 0.224715 0.000000 0.000000 0.000000 0.000000 0.000000 0.000000 0.000000 6.623473 -10.184281 0.567787 74.715077 -10.420444 -3.590747 179.902771 89.793821 -179.997907 0.203683 3.138223 0.006896 -0.002029 -0.350777 -0.000000 0.000000 0.000000 0.000000 0.000000 0.000000 0.000000 
-3.701121 15.276730 -1.647033 19.881544 73.635805 48.256554 4.633303 -4.191432 8.577580 0.478797 -4.129473 -1.080534 -5.085319 -4.040761 0.351432 9.173517 -14.896609 -9.437489 -1.953471 -0.096712 -0.846631 0.000000 0.000000 0.000000 9.657324 7.198147 1.742631 -73.319868 15.554319 -0.399722 -179.886553 -89.660375 -179.963151 -7.238717 5.194952 -0.319526 0.103182 0.213579 0.000000 0.000000 0.000000 0.000000 0.000000 0.000000 0.000000 6.975480 -10.353590 0.421191 74.906965 -9.754156 -4.482766 179.910059 89.885916 179.996941 -0.778870 2.985263 -0.022475 0.013964 -0.352842 -0.000000 0.000000 0.000000 0.000000 0.000000 0.000000 0.000000 
-3.579686 15.284673 -1.606499 19.499503 73.026167 47.892839 4.718854 -4.185701 8.200177 0.500839 -4.132547 -1.114562 -5.108345 -4.045217 0.557672 9.357942 -15.013993 -9.541549 -1.965558 -0.096847 -0.865059 0.000000 0.000000 0.000000 9.454270 7.897076 1.756271 -74.532759 15.657319 -1.038901 0.047772 -89.167704 0.037392 -7.684073 5.472794 -0.358741 0.105561 0.202937 0.000000 0.000000 0.000000 0.000000 0.000000 0.000000 0.000000 7.282113 -10.541953 0.276655 75.086312 -9.142282 -5.268836 179.914592 89.909859 179.991461 -1.694247 2.820782 -0.047151 0.028750 -0.354543 -0.000000 0.000000 0.000000 0.000000 0.000000 0.000000 0.000000 
-3.460186 15.294734 -1.565562 19.154128 72.400117 47.595141 4.798493 -4.174782 7.813581 0.521526 -4.131855 -1.150855 -5.129538 -4.046431 0.761420 9.532630 -15.147348 -9.646481 -1.967898 -0.096204 -0.883965 0.000000 0.000000 0.000000 9.205578 8.599556 1.769076 -75.567177 15.696720 -1.569707 -0.021701 -87.970632 0.037420 -7.977340 5.722455 -0.390638 0.104479 0.193247 0.000000 0.000000 0.000000 0.000000 0.000000 0.000000 0.000000 7.541296 -10.739100 0.137938 75.252740 -8.588354 -5.946986 179.922619 89.865787 179.992121 -2.511086 2.654350 -0.066430 0.041901 -0.356000 -0.000000 0.000000 0.000000 0.000000 0.000000 0.000000 0.000000 
-3.343162 15.306803 -1.524219 18.830800 71.759720 47.340147 4.874631 -4.157950 7.431510 0.540899 -4.126276 -1.188155 -5.149347 -4.043230 0.955806 9.696775 -15.289169 -9.748346 -1.961484 -0.094892 -0.902515 0.000000 0.000000 0.000000 8.923847 9.282267 1.781455 -76.424083 15.691254 -1.978862 -0.094412 -86.749674 0.036664 -8.117703 5.923332 -0.412220 0.100347 0.184815 0.000000 0.000000 0.000000 0.000000 0.000000 0.000000 0.000000 7.753126 -10.935924 0.007967 75.404156 -8.093594 -6.516764 179.919044 89.756413 179.983960 -3.204851 2.496502 -0.080514 0.053052 -0.357374 -0.000000 0.000000 0.000000 0.000000 0.000000 0.000000 0.000000 
-3.229176 15.320656 -1.482394 18.519876 71.107963 47.108001 4.948166 -4.134835 7.067586 0.558735 -4.114921 -1.224912 -5.168137 -4.034629 1.135239 9.849882 -15.433039 -9.843280 -1.947314 -0.093023 -0.919864 0.000000 0.000000 0.000000 8.625716 9.923086 1.794034 -77.110951 15.658354 -2.260037 -0.170128 -85.502578 0.035271 -8.118571 6.059952 -0.422291 0.093753 0.177766 0.000000 0.000000 0.000000 0.000000 0.000000 0.000000 0.000000 7.918553 -11.125326 -0.111071 75.538613 -7.656582 -6.976778 179.917318 89.588428 179.980445 -3.758387 2.356825 -0.089903 0.061957 -0.358774 -0.000000 0.000000 0.000000 0.000000 0.000000 0.000000 0.000000 
-3.118828 15.336052 -1.439806 18.218788 70.447767 46.884920 5.016044 -4.105416 6.734140 0.574041 -4.097080 -1.259908 -5.186251 -4.019820 1.293874 9.991697 -15.572310 -9.926134 -1.926555 -0.090748 -0.934713 0.000000 0.000000 0.000000 8.332048 10.493334 1.807509 -77.644017 15.621752 -2.419501 -0.248262 -84.230097 0.033424 -8.006199 6.126021 -0.421153 0.085450 0.171998 0.000000 0.000000 0.000000 0.000000 0.000000 0.000000 0.000000 8.039552 -11.300675 -0.217004 75.654023 -7.277623 -7.325249 179.913988 89.373483 179.977931 -4.167376 2.252580 -0.095995 0.068528 -0.360437 0.000000 0.000000 0.000000 0.000000 0.000000 0.000000 0.000000 
-3.012451 15.352681 -1.396466 17.930244 69.780609 46.661808 5.077948 -4.071350 6.443281 0.586796 -4.073754 -1.290674 -5.203097 -3.999602 1.431059 10.120165 -15.704998 -9.995193 -1.899989 -0.088131 -0.946789 0.000000 0.000000 0.000000 8.056437 10.986909 1.822685 -78.037458 15.586439 -2.454757 -0.328946 -82.922298 0.031305 -7.813234 6.118891 -0.410309 0.076103 0.167351 0.000000 0.000000 0.000000 0.000000 0.000000 0.000000 0.000000 8.117177 -11.461929 -0.310401 75.749218 -6.944258 -7.563518 179.908903 89.121141 179.976254 -4.423687 2.177072 -0.098991 0.072593 -0.362255 0.000000 0.000000 0.000000 0.000000 0.000000 0.000000 0.000000 
-2.910550 15.370222 -1.351954 17.655429 69.109492 46.431828 5.126686 -4.032721 6.200983 0.595391 -4.044311 -1.316978 -5.218641 -3.973299 1.542493 10.234588 -15.824296 -10.045135 -1.868726 -0.085340 -0.954576 0.000000 0.000000 0.000000 7.820963 11.376943 1.840320 -78.314974 15.577197 -2.386737 -0.411266 -81.584889 0.029088 -7.576441 6.050667 -0.393164 0.066464 0.163416 0.000000 0.000000 0.000000 0.000000 0.000000 0.000000 0.000000 8.153248 -11.602881 -0.389795 75.822989 -6.659719 -7.689471 179.902513 88.849026 179.975352 -4.543993 2.152209 -0.100791 0.074371 -0.364523 -0.000000 0.000000 0.000000 0.000000 0.000000 0.000000 0.000000 
-2.813266 15.388360 -1.306148 17.399087 68.434741 46.193605 5.158488 -3.990879 6.011573 0.599323 -4.009553 -1.337779 -5.231912 -3.941616 1.628508 10.332207 -15.927504 -10.074066 -1.833461 -0.082455 -0.957579 0.000000 0.000000 0.000000 7.636346 11.659115 1.861118 -78.494561 15.600924 -2.225268 -0.494989 -80.216622 0.026931 -7.330284 5.934994 -0.372622 0.057083 0.159827 0.000000 0.000000 0.000000 0.000000 0.000000 0.000000 0.000000 8.148071 -11.722733 -0.456061 75.874505 -6.415709 -7.704119 179.895137 88.571177 179.975173 -4.540746 2.176030 -0.101794 0.074008 -0.367203 -0.000000 0.000000 0.000000 0.000000 0.000000 0.000000 0.000000 
-2.720752 15.406853 -1.258931 17.166625 67.756241 45.949591 5.168562 -3.947163 5.875651 0.597980 -3.970388 -1.352750 -5.241841 -3.905413 1.689800 10.410006 -16.011132 -10.080382 -1.794848 -0.079553 -0.955322 0.000000 0.000000 0.000000 7.509690 11.831868 1.885650 -78.593548 15.663935 -1.982192 -0.579707 -78.821673 0.024926 -7.105039 5.790495 -0.351984 0.048397 0.156201 0.000000 0.000000 0.000000 0.000000 0.000000 0.000000 0.000000 8.101529 -11.819613 -0.510196 75.903808 -6.207163 -7.609340 179.887212 88.301578 179.975608 -4.434952 2.247065 -0.102299 0.071796 -0.370265 0.000000 0.000000 0.000000 0.000000 0.000000 0.000000 0.000000 
